PathFileType	4	(X/Y/Z)	C:\Users\Basilio\Documents\Thesis Gigler\squatting_fais\c3dfiles\047\SLS_pre_back1\markers_experimental.trc
DataRate	CameraRate	NumFrames	NumMarkers	Units	OrigDataRate	OrigDataStartFrame	OrigNumFrames
200.000000	200.000000	4	60	mm	200.000000	787	1260
Frame#	Time	FHD			LBHD			RBHD			C7			T10			CLAV			LSHO			LUUPA			LMUPA			LDUPA			LLEP			LMEP			LRAD			LUL			LRFIN			RSHO			RUPA1			RMUPA			RDUPA			RLEP			RMEP			RUL			RUFIN			LASI			RASI			USACR			LSACR			RSACR			LTHI1			LTHI2			LTHI3			LTHI4			LLFC			LMFC			LTIB1			LTIB2			LTIB3			LTIB4			LLMAL			LMMAL			LMT1			LMT2			LMT5			RTHI			RTHI2			RTHI3			RTHI4			RLFC			RMFC			RTIB1			RTIB2			RTIB3			RTIB4			RLMAL			RHEE			RMT1			RMT2			RMT5			RMMAL			*59			
		X1	Y1	Z1	X2	Y2	Z2	X3	Y3	Z3	X4	Y4	Z4	X5	Y5	Z5	X6	Y6	Z6	X7	Y7	Z7	X8	Y8	Z8	X9	Y9	Z9	X10	Y10	Z10	X11	Y11	Z11	X12	Y12	Z12	X13	Y13	Z13	X14	Y14	Z14	X15	Y15	Z15	X16	Y16	Z16	X17	Y17	Z17	X18	Y18	Z18	X19	Y19	Z19	X20	Y20	Z20	X21	Y21	Z21	X22	Y22	Z22	X23	Y23	Z23	X24	Y24	Z24	X25	Y25	Z25	X26	Y26	Z26	X27	Y27	Z27	X28	Y28	Z28	X29	Y29	Z29	X30	Y30	Z30	X31	Y31	Z31	X32	Y32	Z32	X33	Y33	Z33	X34	Y34	Z34	X35	Y35	Z35	X36	Y36	Z36	X37	Y37	Z37	X38	Y38	Z38	X39	Y39	Z39	X40	Y40	Z40	X41	Y41	Z41	X42	Y42	Z42	X43	Y43	Z43	X44	Y44	Z44	X45	Y45	Z45	X46	Y46	Z46	X47	Y47	Z47	X48	Y48	Z48	X49	Y49	Z49	X50	Y50	Z50	X51	Y51	Z51	X52	Y52	Z52	X53	Y53	Z53	X54	Y54	Z54	X55	Y55	Z55	X56	Y56	Z56	X57	Y57	Z57	X58	Y58	Z58	X59	Y59	Z59	X60	Y60	Z60	

788	3.935	117.3362579345703	1321.65283203125	-1121.5576171875	-63.40102767944337	1316.906127929688	-1147.28857421875	-40.10588836669923	1317.579833984375	-1000.775085449219	-126.6719207763672	1189.909912109375	-1070.444580078125	-337.1663208007813	979.085144042969	-1010.781677246094	-35.4658432006836	1058.60595703125	-1094.905151367188	-89.95638275146486	1105.510498046875	-1245.506469726563	-95.75466156005861	943.300720214844	-1342.0908203125	-44.46232223510743	949.3833618164065	-1342.7177734375	-50.93333435058595	889.8911743164065	-1353.394775390625	8.767410278320314	848.7361450195315	-1361.042236328125	-15.87883090972901	810.465515136719	-1284.79736328125	213.7936706542969	895.5766601562502	-1213.984497070313	228.7935485839844	820.902526855469	-1210.983154296875	305.8299560546876	880.3454589843752	-1212.775390625	-24.12631797790528	1111.401245117188	-943.7967529296877	23.08532905578614	954.3161621093752	-844.6326293945315	63.42298507690431	958.5126953125002	-872.0961914062502	67.40121459960939	901.1670532226565	-853.765563964844	127.2146835327149	860.4338378906252	-875.7573242187502	71.96870422363283	809.1138916015627	-924.3779296875002	282.7631835937501	824.9507446289065	-1085.774169921875	281.3322143554688	908.2277832031252	-1127.460693359375	-320.3150634765626	707.1862182617189	-1088.462524414063	-314.0812072753907	715.2550048828126	-861.8484497070315	-438.9980773925782	869.8691406250002	-981.3732910156252	-464.495086669922	848.9498291015627	-1008.37353515625	-458.6072082519532	845.8406982421877	-950.5749511718752	-355.8049926757813	636.0690307617189	-1174.845947265625	-274.9130859375001	615.9730834960939	-1172.499877929688	-245.8429107666016	651.4318847656251	-1155.3828125	-251.0108184814454	560.4723510742189	-1176.399169921875	-142.0515441894532	438.2968750000001	-1148.471313476563	-111.226791381836	449.3510131835939	-1022.666687011719	-175.6504821777344	288.9736022949219	-1029.61279296875	-202.8218383789063	240.7451782226563	-1096.155395507813	-192.1795196533204	238.3113555908204	-1051.570434570313	-247.6675567626954	187.1301727294922	-1017.375183105469	-340.7710571289063	122.8040847778321	-1060.929443359375	-318.2501220703126	141.5184173583985	-971.9046020507815	-208.9994812011719	62.62474441528322	-989.0092773437502	-207.1332092285157	62.86242675781251	-1034.189331054688	-257.9814758300782	52.20094299316408	-1078.018920898438	-421.021942138672	572.5646972656251	-768.099060058594	-383.5389099121094	517.1657714843751	-761.8671875000001	-353.4636840820313	515.3521118164064	-773.8126220703127	-412.9479370117189	437.9546813964845	-757.1259155273439	-416.0857543945314	306.4451904296876	-771.546813964844	-416.6404724121095	279.4505310058594	-901.2301025390627	-522.7000732421876	247.4027557373047	-781.457458496094	-602.4511718750001	317.4013671875001	-748.9575195312501	-602.7901611328126	270.5495605468751	-755.5081787109376	-652.1791992187501	256.4008178710938	-787.0266723632815	-801.664733886719	327.3689880371094	-760.9536132812501	-817.075866699219	379.9605407714844	-822.6121215820315	-887.806823730469	183.0463256835938	-815.9897460937502	-887.9207153320315	181.4626159667969	-772.4482421875002	-906.1829833984377	242.6736907958985	-726.7931518554689	-789.7313232421877	285.6369934082032	-842.3802490234377	nan	nan	nan	
789	3.94	117.226921081543	1321.590576171875	-1121.695556640625	-63.51770019531251	1316.6103515625	-1147.502075195313	-40.15178298950196	1317.492309570313	-1001.039855957031	-126.5503692626953	1189.742553710938	-1070.595825195313	-337.1665039062501	978.8948974609377	-1010.737365722656	-35.75912475585938	1058.760498046875	-1095.066162109375	-90.00266265869142	1105.330200195313	-1245.695068359375	-95.50989532470705	942.9372558593752	-1342.306762695313	-44.47882461547852	949.1939086914065	-1342.783935546875	-51.28044509887697	889.851745605469	-1353.417846679688	8.84262275695801	848.5615234375002	-1361.089477539063	-15.87036991119385	810.1955566406252	-1284.604248046875	213.9181518554688	895.3919677734377	-1214.029052734375	228.839340209961	820.6734619140627	-1210.989379882813	305.9151306152344	880.1702270507815	-1212.8115234375	-24.06226921081544	1111.401611328125	-944.1722412109377	23.04290771484375	954.260437011719	-844.7039794921877	63.38179016113283	958.4126586914065	-872.142517089844	67.42626953125001	901.087585449219	-853.784851074219	127.282455444336	860.220886230469	-876.9799804687502	71.95100402832033	808.9663696289065	-924.3642578125002	282.8092956542969	824.9002685546877	-1085.86669921875	281.2611389160157	908.0224609375002	-1127.185302734375	-320.1784362792969	707.0794067382814	-1088.362548828125	-314.0765075683594	715.0964965820314	-861.749694824219	-438.9195556640626	869.7514648437502	-981.3176269531252	-464.3924255371095	848.811462402344	-1008.355163574219	-458.5860595703126	845.7239379882815	-950.4961547851565	-355.9461364746094	636.0505371093751	-1174.912231445313	-275.0191345214844	615.9885253906251	-1172.594848632813	-245.8979034423829	651.4042358398439	-1155.455078125	-251.1365509033204	560.4480590820314	-1176.527099609375	-142.0372467041016	438.2836303710939	-1148.633544921875	-111.245849609375	449.3848571777345	-1022.943237304688	-175.6006927490235	288.8853759765626	-1029.780029296875	-203.1368408203126	241.2030639648438	-1096.206909179688	-192.1870422363282	238.2830810546876	-1051.669067382813	-247.6512298583985	187.1144409179688	-1017.539672851563	-340.6897888183594	122.8189392089844	-1061.001953125	-318.2869567871094	141.5628509521485	-972.011169433594	-209.0444946289063	62.58658599853517	-989.0625610351565	-207.1133117675782	62.87837600708009	-1034.213012695313	-257.8652954101563	51.6935157775879	-1078.134521484375	-421.0167846679689	572.4676513671876	-768.0776977539065	-383.5994262695313	517.1431884765626	-762.1417236328126	-353.5079040527344	515.1173706054689	-773.7883300781252	-413.059295654297	438.0562133789064	-757.2359619140626	-416.1378784179689	306.2750854492188	-771.6832275390627	-416.7454223632814	279.3706970214844	-901.3500976562502	-522.7471313476564	247.1242675781251	-781.4546508789065	-602.6177368164064	317.2549438476563	-748.8943481445314	-602.8312377929689	270.4719848632813	-755.5186767578126	-652.2400512695314	256.2950134277344	-786.9918212890627	-801.8421020507815	327.0736083984376	-760.9937744140626	-817.1322021484377	379.7623596191407	-822.685729980469	-887.8908691406252	182.9812622070313	-816.073425292969	-887.965026855469	181.3895111083985	-772.0687255859377	-906.3491821289065	242.5379486083985	-726.8557739257814	-789.7942504882815	285.4125671386719	-842.3386840820315	nan	nan	nan	
790	3.945	117.0651473999024	1321.678100585938	-1121.579833984375	-63.64295196533205	1316.439208984375	-1147.708862304688	-40.26377487182618	1317.395141601563	-1001.433227539063	-126.5411758422852	1189.564086914063	-1070.880249023438	-337.0970764160157	978.7235107421877	-1010.752380371094	-35.56836700439454	1058.626098632813	-1095.328002929688	-89.95836639404298	1105.099975585938	-1245.886108398438	-95.54636383056642	942.7056274414065	-1342.333740234375	-44.50214767456055	948.9443969726565	-1342.804321289063	-51.26646804809572	889.6466064453127	-1353.49853515625	8.97654438018799	848.3580322265627	-1361.171752929688	-15.77813339233399	809.9372558593752	-1284.31103515625	213.9148864746094	895.2239990234377	-1213.924194335938	228.9604187011719	820.4447021484377	-1210.932739257813	306.0982971191407	880.0773925781252	-1212.821899414063	-24.04023933410645	1111.349487304688	-944.3211669921877	22.98922920227051	954.1630859375002	-844.7664184570315	63.3727493286133	958.3533935546877	-872.3076782226565	67.39180755615236	900.9798583984377	-853.8258056640627	127.2029876708985	860.3474121093752	-875.7810668945315	71.91302490234376	809.0020141601565	-924.320495605469	282.8612365722657	824.8367309570315	-1085.854125976563	281.2903747558594	907.9300537109377	-1127.278564453125	-320.3917846679688	706.6741333007814	-1088.254638671875	-314.0969238281251	714.7902221679689	-861.5979614257815	-438.9627685546876	869.6712036132815	-981.297058105469	-464.3773193359376	848.6143188476565	-1008.296936035156	-458.5493164062501	845.6575317382815	-950.477233886719	-356.0133666992188	636.0059814453126	-1174.985229492188	-275.1275939941407	616.0042114257814	-1172.755615234375	-246.0671386718751	651.3854370117189	-1155.540283203125	-251.2669677734376	560.4018554687501	-1176.640502929688	-142.0658721923828	438.2718200683595	-1148.78759765625	-111.2247772216797	449.4011840820314	-1023.008056640625	-175.6168823242188	288.9146118164063	-1029.913330078125	-202.9524230957032	240.7489776611329	-1096.42578125	-192.1809387207032	238.2660217285157	-1051.79345703125	-247.6544494628907	187.0887756347657	-1017.6259765625	-340.7850952148438	122.8063735961914	-1061.025268554688	-318.1940307617188	141.6590576171875	-971.9292602539065	-209.0132904052735	62.61888885498048	-989.089294433594	-207.2342376708985	62.81617355346681	-1034.234985351563	-257.9857177734376	52.14719772338869	-1078.036376953125	-421.058319091797	572.3009033203126	-768.1221923828127	-383.6179809570313	517.0465087890626	-762.1347045898439	-353.6376953125001	514.9728393554689	-773.6507568359377	-413.0658569335939	437.9752807617189	-757.3073730468751	-416.2175903320314	306.1654663085938	-771.7105102539065	-416.5430297851564	279.2135620117188	-901.3592529296877	-522.8911743164064	246.9126586914063	-780.9751586914065	-602.7215576171876	317.0770263671876	-749.0015258789064	-603.0010986328126	270.2897644042969	-755.5032348632814	-652.3145751953126	256.0538330078126	-787.1691894531252	-801.953063964844	326.8274536132813	-761.0537109375001	-817.2351684570315	379.4709167480469	-822.701599121094	-888.3876953125002	182.7516784667969	-815.6733398437502	-888.1307373046877	181.2257995605469	-772.1404418945315	-906.4548950195315	242.4451599121094	-726.8802490234376	-789.9018554687502	285.1557922363282	-842.3612060546877	nan	nan	nan	
791	3.95	116.9350662231446	1321.293823242188	-1121.801879882813	-63.77307128906251	1316.227905273438	-1147.992065429688	-40.27428817749024	1317.305541992188	-1001.499572753906	-126.6947860717774	1189.243408203125	-1070.993530273438	-337.0988464355469	978.5379638671877	-1010.755126953125	-35.72633361816407	1058.530517578125	-1095.434204101563	-89.95195770263673	1104.844116210938	-1246.02294921875	-95.40858459472658	942.404235839844	-1342.565673828125	-44.40427780151368	948.7471313476565	-1342.99560546875	-51.21173095703126	889.4235839843752	-1353.58984375	9.045419692993166	848.2135009765627	-1361.233154296875	-15.77902698516846	809.7740478515627	-1284.223266601563	213.8620758056641	895.0024414062502	-1213.938354492188	228.9120178222657	820.2107543945315	-1210.960815429688	306.0148925781251	879.8732910156252	-1212.841552734375	-24.01758766174317	1111.3076171875	-944.4637451171877	22.92919349670411	954.074157714844	-844.945251464844	63.44109344482423	958.356872558594	-872.3491210937502	67.32539367675783	900.8560791015627	-853.8709716796877	127.2642364501953	860.2105102539065	-876.3349609375002	72.01051330566408	808.8579101562502	-924.421569824219	282.7687377929688	824.6964111328127	-1085.77001953125	281.3309020996094	907.8140258789065	-1127.3896484375	-320.5219726562501	706.6540527343751	-1088.409912109375	-314.0853576660157	714.7236328125001	-861.8150024414065	-438.9298095703126	869.6259765625002	-981.2727050781252	-464.3789978027345	848.5527343750002	-1008.241149902344	-458.5391540527345	845.5711059570315	-950.3945312500002	-356.1105041503907	635.9591674804689	-1175.045776367188	-275.2450866699219	616.0510253906251	-1172.772216796875	-246.2546539306641	651.2980346679689	-1155.52978515625	-251.3027648925782	560.4711914062501	-1176.717163085938	-142.1799468994141	438.2786560058595	-1148.986328125	-111.2873687744141	449.4009399414064	-1023.191528320313	-175.5655822753907	288.9050292968751	-1030.171508789063	-203.1584472656251	240.6573486328126	-1096.522827148438	-192.1994171142579	238.2145996093751	-1051.892211914063	-247.5601348876954	187.0382843017578	-1017.837158203125	-340.7169189453126	122.7550277709961	-1061.144653320313	-318.1844787597657	141.6863708496094	-971.9807128906252	-209.0519561767579	62.57685470581056	-989.0244140625002	-207.084945678711	62.87881469726564	-1034.28759765625	-257.9953613281251	52.05825805664064	-1078.075439453125	-421.1165466308595	572.0881958007814	-768.1472167968752	-383.6698303222657	516.9486694335939	-762.2323608398439	-353.7180786132813	514.8580932617189	-773.6258544921877	-413.2152404785157	437.8122863769532	-757.2863159179689	-416.3569641113282	306.0340881347657	-771.7869262695315	-416.6601562500001	279.0504760742188	-901.3855590820315	-522.9534301757814	246.7496795654297	-781.0510864257815	-602.8494262695314	316.8113098144532	-748.8852539062501	-603.0551757812501	270.1624755859376	-755.5663452148439	-652.4264526367189	255.9190368652344	-787.2778930664065	-802.0750122070315	326.6736145019532	-760.7316284179689	-817.3183593750002	379.2944641113282	-822.7608642578127	-888.4773559570315	182.5799560546875	-815.5916137695315	-888.1807861328127	180.981185913086	-771.602233886719	-906.6480712890627	242.2358398437501	-726.8559570312501	-790.0426025390627	284.9982299804688	-842.3284301757815	nan	nan	nan	
